# xmcd
#
# Track frame offsets:
#	182
#	16650
#	36225
#	46200
#	62250
#	90800
#	107100
#	121075
#	141450
#	169650
#	183625
#	202650
#
# Disc length: 2847 seconds
#
# Revision: 1
# Processed by: cddbd v1.4PL0 Copyright (c) Steve Scherf et al.
# Submitted via: audiograbber 1.80
#
DISCID=8e0b1d0c
DTITLE=Ray Charles - Golden Age
DYEAR=1900
DGENRE=
TTITLE0=Georgia On My Mind
TTITLE1=Talking 'bout You
TTITLE2=Sticks and Stones
TTITLE3=Hot Rod
TTITLE4=Drown In My Own Tears
TTITLE5=Come Rain or Come Shine
TTITLE6=Hallelujah I Love Her So
TTITLE7=What'd I Say
TTITLE8=I Gotta a Woman
TTITLE9=One Mint Julep
TTITLE10=Sherry
TTITLE11=The Right Time
EXTD=
EXTT0=
EXTT1=
EXTT2=
EXTT3=
EXTT4=
EXTT5=
EXTT6=
EXTT7=
EXTT8=
EXTT9=
EXTT10=
EXTT11=
PLAYORDER=
